# Blender v2.92.0 OBJ File: 'level04.blend'
# www.blender.org
mtllib lava_level_04.mtl
o Cube
v 2.746465 3.660645 18.330990
v 2.746465 -3.660645 18.330990
v 2.746465 3.660645 -18.330990
v 2.746465 -3.660645 -18.330990
v 3.520883 3.660645 18.330990
v 3.520883 -3.660645 18.330990
v 3.520883 3.660645 -18.330990
v 3.520883 -3.660645 -18.330990
v -4.423691 3.660645 26.332657
v -4.423691 -3.660645 26.332657
v -4.423691 3.660645 -18.208483
v -4.423691 -3.660645 -18.208483
v -3.649273 3.660645 26.332657
v -3.649273 -3.660645 26.332657
v -3.649273 3.660645 -18.208483
v -3.649273 -3.660645 -18.208483
v -4.431520 3.660645 26.254482
v -4.431520 -3.660645 26.254482
v 32.230457 3.660645 26.254482
v 32.230457 -3.660645 26.254482
v -4.431520 3.660645 27.028900
v -4.431520 -3.660645 27.028900
v 32.230457 3.660645 27.028900
v 32.230457 -3.660645 27.028900
v 2.984551 3.660645 17.660480
v 2.984551 -3.660645 17.660480
v 23.345692 3.660645 17.660479
v 23.345692 -3.660645 17.660479
v 2.984551 3.660645 18.434896
v 2.984551 -3.660645 18.434896
v 23.345692 3.660645 18.434896
v 23.345692 -3.660645 18.434896
v 32.597225 3.660645 -18.453915
v 32.597225 -3.660645 -18.453915
v 32.597225 3.660645 27.092264
v 32.597225 -3.660645 27.092264
v 31.822807 3.660645 -18.453915
v 31.822807 -3.660645 -18.453915
v 31.822807 3.660645 27.092264
v 31.822807 -3.660645 27.092264
v 22.643654 3.660645 18.330990
v 22.643654 -3.660645 18.330990
v 22.643654 3.660645 -18.330990
v 22.643654 -3.660645 -18.330990
v 23.418072 3.660645 18.330990
v 23.418072 -3.660645 18.330990
v 23.418072 3.660645 -18.330990
v 23.418072 -3.660645 -18.330990
v 3.366691 -3.404920 -18.354378
v 3.366691 3.404920 -18.354378
v 3.366691 -3.404920 -17.312855
v 3.366691 3.404920 -17.312855
v -4.435293 -3.404920 -18.354378
v -4.435293 3.404920 -18.354378
v -4.435293 -3.404920 -17.312855
v -4.435293 3.404920 -17.312855
v 32.403236 -3.404920 -18.354378
v 32.403236 3.404920 -18.354378
v 32.403236 -3.404920 -17.312855
v 32.403236 3.404920 -17.312855
v 23.107826 -3.404920 -18.354378
v 23.107826 3.404920 -18.354378
v 23.107826 -3.404920 -17.312855
v 23.107826 3.404920 -17.312855
v 32.461384 -3.410377 -17.562660
v 32.461384 0.109152 -17.562660
v 32.461384 -3.410377 -14.043131
v 32.461384 0.109152 -14.043131
v 22.901205 -3.410377 -17.562660
v 22.901205 0.109152 -17.562660
v 22.901205 -3.410377 -14.043131
v 22.901205 0.109152 -14.043131
v 3.342053 -3.410377 -17.562660
v 3.342053 0.109152 -17.562660
v 3.342053 -3.410377 -14.043131
v 3.342053 0.109152 -14.043131
v -4.376818 -3.410377 -17.562660
v -4.376818 0.109152 -17.562660
v -4.376818 -3.410377 -14.043131
v -4.376818 0.109152 -14.043131
vt 0.625000 0.500000
vt 0.875000 0.500000
vt 0.875000 0.750000
vt 0.625000 0.750000
vt 0.375000 0.750000
vt 0.625000 1.000000
vt 0.375000 1.000000
vt 0.375000 0.000000
vt 0.625000 0.000000
vt 0.625000 0.250000
vt 0.375000 0.250000
vt 0.125000 0.500000
vt 0.375000 0.500000
vt 0.125000 0.750000
vt 0.375000 0.000000
vt 0.625000 0.000000
vt 0.625000 0.250000
vt 0.375000 0.250000
vt 0.625000 0.500000
vt 0.375000 0.500000
vt 0.625000 0.750000
vt 0.375000 0.750000
vt 0.625000 1.000000
vt 0.375000 1.000000
vt 0.125000 0.500000
vt 0.125000 0.750000
vt 0.875000 0.500000
vt 0.875000 0.750000
vt 0.375000 0.000000
vt 0.625000 0.000000
vt 0.625000 0.250000
vt 0.375000 0.250000
vt 0.625000 0.500000
vt 0.375000 0.500000
vt 0.625000 0.750000
vt 0.375000 0.750000
vt 0.625000 1.000000
vt 0.375000 1.000000
vt 0.125000 0.500000
vt 0.125000 0.750000
vt 0.875000 0.500000
vt 0.875000 0.750000
vt 0.625000 0.500000
vt 0.875000 0.500000
vt 0.875000 0.750000
vt 0.625000 0.750000
vt 0.375000 0.750000
vt 0.625000 1.000000
vt 0.375000 1.000000
vt 0.375000 0.000000
vt 0.625000 0.000000
vt 0.625000 0.250000
vt 0.375000 0.250000
vt 0.125000 0.500000
vt 0.375000 0.500000
vt 0.125000 0.750000
vt 0.625000 0.500000
vt 0.875000 0.500000
vt 0.875000 0.750000
vt 0.625000 0.750000
vt 0.375000 0.750000
vt 0.625000 1.000000
vt 0.375000 1.000000
vt 0.375000 0.000000
vt 0.625000 0.000000
vt 0.625000 0.250000
vt 0.375000 0.250000
vt 0.125000 0.500000
vt 0.375000 0.500000
vt 0.125000 0.750000
vt 0.625000 0.500000
vt 0.875000 0.500000
vt 0.875000 0.750000
vt 0.625000 0.750000
vt 0.375000 0.750000
vt 0.625000 1.000000
vt 0.375000 1.000000
vt 0.375000 0.000000
vt 0.625000 0.000000
vt 0.625000 0.250000
vt 0.375000 0.250000
vt 0.125000 0.500000
vt 0.375000 0.500000
vt 0.125000 0.750000
vt 0.625000 0.500000
vt 0.875000 0.500000
vt 0.875000 0.750000
vt 0.625000 0.750000
vt 0.375000 0.750000
vt 0.625000 1.000000
vt 0.375000 1.000000
vt 0.375000 0.000000
vt 0.625000 0.000000
vt 0.625000 0.250000
vt 0.375000 0.250000
vt 0.125000 0.500000
vt 0.375000 0.500000
vt 0.125000 0.750000
vt 0.625000 0.500000
vt 0.875000 0.500000
vt 0.875000 0.750000
vt 0.625000 0.750000
vt 0.375000 0.750000
vt 0.625000 1.000000
vt 0.375000 1.000000
vt 0.375000 0.000000
vt 0.625000 0.000000
vt 0.625000 0.250000
vt 0.375000 0.250000
vt 0.125000 0.500000
vt 0.375000 0.500000
vt 0.125000 0.750000
vt 0.375000 0.000000
vt 0.625000 0.000000
vt 0.625000 0.250000
vt 0.375000 0.250000
vt 0.625000 0.500000
vt 0.375000 0.500000
vt 0.625000 0.750000
vt 0.375000 0.750000
vt 0.625000 1.000000
vt 0.375000 1.000000
vt 0.125000 0.500000
vt 0.125000 0.750000
vt 0.875000 0.500000
vt 0.875000 0.750000
vt 0.375000 0.000000
vt 0.625000 0.000000
vt 0.625000 0.250000
vt 0.375000 0.250000
vt 0.625000 0.500000
vt 0.375000 0.500000
vt 0.625000 0.750000
vt 0.375000 0.750000
vt 0.625000 1.000000
vt 0.375000 1.000000
vt 0.125000 0.500000
vt 0.125000 0.750000
vt 0.875000 0.500000
vt 0.875000 0.750000
vn 0.0000 1.0000 0.0000
vn 0.0000 0.0000 -1.0000
vn 1.0000 0.0000 0.0000
vn 0.0000 -1.0000 0.0000
vn -1.0000 0.0000 0.0000
vn 0.0000 0.0000 1.0000
usemtl Material
s off
f 1/1/1 5/2/1 7/3/1 3/4/1
f 4/5/2 3/4/2 7/6/2 8/7/2
f 8/8/3 7/9/3 5/10/3 6/11/3
f 6/12/4 2/13/4 4/5/4 8/14/4
f 2/13/5 1/1/5 3/4/5 4/5/5
f 6/11/6 5/10/6 1/1/6 2/13/6
f 65/15/3 66/16/3 68/17/3 67/18/3
f 67/18/6 68/17/6 72/19/6 71/20/6
f 71/20/5 72/19/5 70/21/5 69/22/5
f 69/22/2 70/21/2 66/23/2 65/24/2
f 67/25/4 71/20/4 69/22/4 65/26/4
f 72/19/1 68/27/1 66/28/1 70/21/1
f 73/29/3 74/30/3 76/31/3 75/32/3
f 75/32/6 76/31/6 80/33/6 79/34/6
f 79/34/5 80/33/5 78/35/5 77/36/5
f 77/36/2 78/35/2 74/37/2 73/38/2
f 75/39/4 79/34/4 77/36/4 73/40/4
f 80/33/1 76/41/1 74/42/1 78/35/1
usemtl Material.001
f 9/43/1 13/44/1 15/45/1 11/46/1
f 12/47/2 11/46/2 15/48/2 16/49/2
f 16/50/3 15/51/3 13/52/3 14/53/3
f 14/54/4 10/55/4 12/47/4 16/56/4
f 10/55/5 9/43/5 11/46/5 12/47/5
f 14/53/6 13/52/6 9/43/6 10/55/6
usemtl Material.007
f 17/57/1 21/58/1 23/59/1 19/60/1
f 20/61/3 19/60/3 23/62/3 24/63/3
f 24/64/6 23/65/6 21/66/6 22/67/6
f 22/68/4 18/69/4 20/61/4 24/70/4
f 18/69/2 17/57/2 19/60/2 20/61/2
f 22/67/5 21/66/5 17/57/5 18/69/5
usemtl Material.008
f 25/71/1 29/72/1 31/73/1 27/74/1
f 28/75/3 27/74/3 31/76/3 32/77/3
f 32/78/6 31/79/6 29/80/6 30/81/6
f 30/82/4 26/83/4 28/75/4 32/84/4
f 26/83/2 25/71/2 27/74/2 28/75/2
f 30/81/5 29/80/5 25/71/5 26/83/5
usemtl Material.009
f 33/85/1 37/86/1 39/87/1 35/88/1
f 36/89/6 35/88/6 39/90/6 40/91/6
f 40/92/5 39/93/5 37/94/5 38/95/5
f 38/96/4 34/97/4 36/89/4 40/98/4
f 34/97/3 33/85/3 35/88/3 36/89/3
f 38/95/2 37/94/2 33/85/2 34/97/2
usemtl Material.010
f 41/99/1 45/100/1 47/101/1 43/102/1
f 44/103/2 43/102/2 47/104/2 48/105/2
f 48/106/3 47/107/3 45/108/3 46/109/3
f 46/110/4 42/111/4 44/103/4 48/112/4
f 42/111/5 41/99/5 43/102/5 44/103/5
f 46/109/6 45/108/6 41/99/6 42/111/6
f 49/113/3 50/114/3 52/115/3 51/116/3
f 51/116/6 52/115/6 56/117/6 55/118/6
f 55/118/5 56/117/5 54/119/5 53/120/5
f 53/120/2 54/119/2 50/121/2 49/122/2
f 51/123/4 55/118/4 53/120/4 49/124/4
f 56/117/1 52/125/1 50/126/1 54/119/1
f 57/127/3 58/128/3 60/129/3 59/130/3
f 59/130/6 60/129/6 64/131/6 63/132/6
f 63/132/5 64/131/5 62/133/5 61/134/5
f 61/134/2 62/133/2 58/135/2 57/136/2
f 59/137/4 63/132/4 61/134/4 57/138/4
f 64/131/1 60/139/1 58/140/1 62/133/1
